<?xml version="1.0" standalone="no"?>
<!DOCTYPE svg PUBLIC "-//W3C//DTD SVG 20010904//EN"
 "http://www.w3.org/TR/2001/REC-SVG-20010904/DTD/svg10.dtd">
<svg version="1.0" xmlns="http://www.w3.org/2000/svg"
 width="768.000000pt" height="768.000000pt" viewBox="0 0 768.000000 768.000000"
 preserveAspectRatio="xMidYMid meet">

<g transform="translate(0.000000,768.000000) scale(0.100000,-0.100000)"
fill="#000000" stroke="none">
<path d="M0 7210 c0 -307 3 -470 10 -470 6 0 10 -5 10 -11 0 -5 -4 -7 -10 -4
-7 4 -10 -93 -10 -284 0 -222 3 -291 13 -294 9 -4 9 -6 0 -6 -10 -1 -13 -92
-13 -422 0 -277 3 -418 10 -414 6 4 10 -6 9 -22 0 -25 -1 -26 -9 -8 -5 13 -9
-29 -9 -112 -1 -96 2 -133 12 -136 10 -4 10 -6 0 -6 -10 -1 -13 -113 -13 -526
l0 -525 27 -11 c18 -7 218 -9 583 -7 l555 3 1 95 c0 110 13 253 24 270 5 9 23
10 58 5 44 -6 52 -11 60 -35 9 -23 8 -168 -1 -300 l-2 -25 398 -3 c218 -1 397
1 397 4 0 21 -70 116 -118 161 -48 45 -54 54 -42 68 11 13 10 19 -5 35 -20 22
-14 35 23 54 44 22 83 4 135 -62 25 -32 65 -71 89 -87 52 -35 77 -64 78 -88 0
-11 13 -32 30 -47 16 -15 30 -33 30 -40 0 -7 7 -10 16 -6 9 3 36 6 60 6 30 0
43 4 39 11 -9 14 91 107 140 129 23 11 65 23 95 29 30 5 73 16 95 25 51 19 96
20 186 1 108 -23 186 -68 231 -135 62 -93 56 -90 163 -90 82 0 96 2 101 18 3
9 9 24 14 32 5 8 19 33 30 55 31 57 45 71 126 120 40 24 82 53 93 64 25 25 82
36 120 23 20 -7 43 -7 73 0 80 18 224 -13 253 -55 8 -12 15 -32 15 -45 0 -12
7 -25 15 -28 12 -5 15 -28 15 -124 0 -98 3 -119 16 -124 29 -11 204 -7 204 5
0 16 65 88 114 126 95 75 128 93 227 126 88 29 124 36 231 41 125 7 127 7 141
-16 8 -13 18 -39 22 -58 4 -19 14 -44 21 -55 20 -27 17 -52 -10 -111 -17 -37
-33 -55 -60 -68 -20 -9 -36 -21 -36 -26 0 -13 65 -19 217 -22 153 -3 148 -7
132 95 -6 34 -13 112 -16 172 -16 290 8 435 72 435 13 0 27 5 30 10 21 34 121
-24 112 -64 -29 -131 -38 -190 -46 -300 -6 -71 -7 -134 -4 -140 4 -6 8 -40 9
-76 4 -108 15 -162 31 -156 8 4 38 6 67 6 l52 0 42 64 c56 86 94 109 159 99
42 -7 48 -12 51 -36 3 -24 -2 -29 -52 -51 -46 -21 -56 -29 -56 -50 0 -13 -3
-31 -6 -40 -4 -11 -1 -16 10 -16 9 0 16 -4 16 -10 0 -5 11 -10 25 -10 14 0 25
-5 25 -10 0 -11 81 -7 134 6 23 5 32 2 46 -16 15 -20 20 -21 51 -11 19 6 51
13 71 15 20 3 46 14 57 25 18 18 25 19 46 9 14 -6 25 -19 25 -29 0 -19 -25
-49 -41 -49 -6 0 -1 -12 10 -26 43 -55 26 -69 -89 -70 -47 0 -117 -6 -156 -14
l-71 -14 0 -45 c0 -25 -4 -81 -8 -123 -7 -72 -6 -78 11 -78 11 -1 33 -7 49
-14 l30 -14 -45 2 -45 1 -2 -268 c-1 -242 -3 -270 -20 -295 -10 -15 -21 -36
-25 -47 -5 -17 -6 -15 -7 8 l-1 27 -2968 0 -2969 0 -10 -22 c-14 -29 -15 -188
-1 -188 6 0 5 -7 -3 -16 -10 -13 -10 -17 2 -25 10 -6 10 -9 2 -9 -7 0 -13 -9
-13 -19 0 -11 6 -22 13 -24 10 -4 10 -6 0 -6 -10 -1 -13 -32 -13 -118 0 -73 4
-113 9 -104 5 8 7 21 4 30 -4 14 -4 14 6 1 6 -8 8 -23 5 -32 -3 -10 -1 -18 5
-18 6 0 11 5 11 10 0 6 10 20 21 31 l22 22 -7 -26 c-3 -14 -2 -29 4 -32 5 -3
10 -1 10 4 0 6 7 11 15 11 10 0 15 -10 15 -34 0 -43 -9 -68 -22 -60 -5 3 -12
-3 -15 -15 -3 -12 -9 -21 -14 -21 -5 0 -9 -8 -9 -17 0 -12 -5 -9 -15 10 -14
28 -11 56 9 69 6 4 7 10 4 14 -10 9 -41 -24 -33 -35 3 -5 0 -13 -6 -17 -8 -5
-9 -3 -4 6 5 9 4 11 -3 6 -18 -11 -16 -203 2 -222 19 -18 24 -18 29 4 4 16 5
16 6 0 1 -21 17 -24 24 -5 2 6 4 -7 3 -31 -1 -36 -3 -40 -14 -25 -11 15 -12
13 -12 -13 l-1 -29 -15 30 c-11 22 -13 24 -10 8 5 -27 -10 -41 -17 -16 -4 14
-5 13 -6 -4 0 -12 5 -24 12 -26 10 -4 10 -6 0 -6 -8 -1 -13 -14 -13 -31 0 -17
5 -30 13 -30 9 0 9 -2 0 -8 -16 -10 -16 -302 0 -302 6 0 7 -3 4 -6 -3 -4 -2
-15 3 -25 6 -11 6 -20 1 -24 -5 -3 -11 3 -13 12 -2 10 -4 -82 -5 -205 -1 -123
2 -220 6 -217 5 2 11 -2 15 -10 3 -8 10 -15 17 -15 6 0 8 7 5 16 -7 17 19 54
36 54 6 0 18 -10 28 -22 13 -17 15 -28 9 -40 -7 -13 -6 -18 3 -18 8 -1 6 -6
-5 -14 -10 -8 -20 -28 -22 -46 -2 -18 -9 -38 -16 -44 -8 -8 -10 -5 -4 12 4 14
2 22 -5 22 -6 0 -9 -4 -6 -9 3 -5 -1 -14 -8 -20 -10 -8 -16 -9 -21 -1 -3 5 -2
10 2 10 5 0 9 9 10 20 1 11 -2 18 -8 15 -5 -4 -9 5 -9 18 0 14 -7 30 -15 37
-12 10 -15 9 -15 -4 0 -10 4 -14 10 -11 6 4 10 -12 10 -42 0 -35 -3 -44 -10
-33 -7 11 -10 6 -10 -20 0 -26 3 -31 10 -20 8 13 10 12 10 -2 0 -10 -4 -18
-10 -18 -15 0 -12 -87 3 -93 9 -4 9 -6 0 -6 -7 -1 -13 -13 -13 -27 0 -14 4
-23 10 -19 5 3 8 11 6 18 -1 7 -1 9 1 5 3 -5 12 -8 20 -8 12 0 8 -7 -11 -25
-17 -16 -26 -33 -25 -52 2 -27 2 -27 6 -3 3 14 9 30 15 35 7 7 9 3 5 -12 -3
-13 -1 -26 4 -29 5 -3 9 9 9 27 0 37 9 32 27 -14 l13 -32 -6 32 c-3 21 -1 33
5 33 6 0 12 12 12 28 2 26 2 26 6 2 2 -14 9 -42 15 -63 9 -29 9 -40 0 -49 -16
-16 -16 -82 -1 -72 7 4 10 1 7 -7 -7 -22 -38 -23 -39 -2 0 10 -3 13 -6 6 -2
-7 -9 -13 -14 -13 -6 0 -8 4 -5 9 3 5 -2 12 -11 16 -10 3 -19 1 -21 -4 -2 -6
-8 -9 -13 -5 -5 3 -9 0 -9 -5 0 -6 5 -11 10 -11 6 0 10 -8 10 -17 0 -15 -2
-16 -10 -3 -8 12 -10 12 -10 -5 0 -25 33 -47 57 -38 10 3 15 3 11 -2 -10 -11
-59 -15 -52 -4 3 5 1 9 -4 9 -6 0 -10 -16 -9 -35 1 -23 4 -31 10 -22 5 7 6 0
1 -18 -4 -16 -8 -81 -10 -142 l-4 -113 2974 0 c2369 0 2976 3 2983 12 9 14 10
146 12 1173 l2 700 43 22 c80 39 239 157 327 241 75 72 92 95 132 180 26 53
58 138 72 187 15 50 43 131 65 180 21 51 41 116 45 150 3 33 13 98 22 145 21
114 21 244 0 495 -9 116 -24 305 -33 420 -8 116 -19 239 -24 275 -5 36 -10 82
-10 103 0 25 -18 76 -54 150 -30 62 -65 137 -78 167 -35 78 -214 342 -290 425
-72 80 -162 199 -201 265 -15 25 -83 106 -153 182 -115 124 -134 140 -208 177
-44 22 -103 60 -131 85 -44 40 -57 46 -120 56 -38 6 -126 24 -195 40 -69 16
-179 39 -245 51 -66 11 -154 27 -195 35 -48 9 -209 18 -445 24 -203 6 -406 14
-450 20 -44 5 -134 9 -199 9 -368 2 -739 41 -1101 114 -66 14 -147 28 -180 32
-195 21 -612 101 -708 135 -29 10 -99 39 -156 64 -57 25 -110 46 -117 46 -7 0
-121 108 -254 239 -201 200 -246 249 -270 300 l-30 61 0 359 0 360 -415 1
-415 1 0 -471z m815 52 c-6 -41 -8 -43 -21 -25 -9 10 -13 12 -9 6 3 -7 1 -13
-4 -13 -6 0 -11 -6 -11 -14 0 -8 -5 -18 -12 -22 -7 -4 -8 -3 -4 4 4 7 2 12 -3
12 -6 0 -11 14 -11 30 0 17 -5 30 -11 30 -8 0 -8 5 1 15 16 19 41 20 34 1 -3
-8 -1 -17 5 -21 13 -7 17 3 27 70 l7 50 9 -40 c5 -22 6 -60 3 -83z m-655 28
c0 -5 -4 -10 -10 -10 -5 0 -10 5 -10 10 0 6 5 10 10 10 6 0 10 -4 10 -10z
m159 -15 c3 -17 2 -17 -13 -3 -19 20 -21 31 -3 26 6 -3 14 -13 16 -23z m-245
-20 c-4 -8 -8 -15 -10 -15 -2 0 -4 7 -4 15 0 8 4 15 10 15 5 0 7 -7 4 -15z
m323 -42 c-4 -17 -4 -17 -12 0 -4 9 -4 25 0 35 8 16 8 16 12 0 3 -10 3 -26 0
-35z m-297 -42 c0 -6 -4 -13 -10 -16 -5 -3 -10 1 -10 9 0 9 5 16 10 16 6 0 10
-4 10 -9z m-83 -73 c-3 -8 -6 -5 -6 6 -1 11 2 17 5 13 3 -3 4 -12 1 -19z m383
-18 c0 -38 -2 -40 -30 -40 -33 0 -38 11 -15 30 8 7 15 21 15 31 0 11 7 19 15
19 11 0 15 -11 15 -40z m-340 -10 c1 8 2 17 2 20 -1 9 45 6 54 -2 4 -5 -2 -8
-13 -8 -23 0 -57 -33 -46 -45 5 -4 3 -6 -2 -2 -6 3 -11 23 -12 44 -1 36 -1 37
7 8 4 -16 9 -23 10 -15z m700 -16 c0 -8 -4 -14 -10 -14 -5 0 -10 9 -10 21 0
11 5 17 10 14 6 -3 10 -13 10 -21z m-736 1 c3 -8 1 -15 -4 -15 -6 0 -10 7 -10
15 0 8 2 15 4 15 2 0 6 -7 10 -15z m136 -5 c0 -5 -9 -10 -20 -10 -22 0 -29
-35 -7 -43 9 -3 8 -9 -5 -22 -11 -12 -23 -15 -35 -10 -12 5 -14 9 -5 12 6 3
12 16 12 30 0 26 24 52 48 53 6 0 12 -4 12 -10z m-119 -90 c5 0 9 13 9 30 0
22 4 28 15 24 21 -8 19 -28 -5 -49 -18 -16 -22 -17 -35 -4 -9 9 -11 24 -7 44
7 30 7 30 10 -7 2 -21 7 -38 13 -38z m274 30 c-3 -5 -10 -10 -16 -10 -5 0 -9
5 -9 10 0 6 7 10 16 10 8 0 12 -4 9 -10z m499 -31 c-2 -4 3 -15 12 -23 8 -9
13 -16 9 -16 -3 0 0 -10 6 -22 9 -17 4 -15 -19 9 -34 33 -41 60 -17 60 8 0 12
-4 9 -8z m-524 -177 c0 -13 -12 -22 -22 -16 -10 6 -1 24 13 24 5 0 9 -4 9 -8z
m-227 -55 c3 -8 -1 -14 -9 -14 -8 0 -14 6 -14 14 0 7 4 13 9 13 5 0 11 -6 14
-13z m7 -37 c0 -5 -2 -10 -4 -10 -3 0 -8 5 -11 10 -3 6 -1 10 4 10 6 0 11 -4
11 -10z m384 -16 c18 -7 10 -34 -10 -34 -8 0 -14 -4 -14 -10 0 -5 -7 -10 -15
-10 -8 0 -15 -4 -15 -10 0 -5 -11 -10 -25 -10 -25 0 -33 14 -15 25 6 4 8 10 5
15 -8 13 21 31 67 39 3 0 13 -2 22 -5z m-161 -25 c4 -15 2 -19 -10 -15 -8 3
-19 6 -25 6 -6 0 -6 6 2 15 17 21 27 19 33 -6z m35 -87 c-11 -5 -10 -50 2 -73
12 -21 1 -26 -19 -6 -10 10 -11 9 -6 -4 4 -10 1 -20 -5 -24 -6 -4 -16 -18 -21
-32 -7 -19 -12 -23 -23 -14 -7 6 -15 9 -18 6 -6 -7 -46 37 -50 55 -2 8 -6 17
-10 20 -17 13 6 51 33 57 16 3 29 12 29 19 0 17 17 18 24 2 3 -9 12 -5 28 12
23 26 23 26 34 5 5 -11 6 -21 2 -23z m-138 -148 c0 -3 -7 -12 -15 -20 -8 -9
-15 -29 -15 -45 0 -16 -4 -29 -10 -29 -5 0 -10 4 -10 9 0 5 -9 11 -20 14 -33
8 -25 37 10 37 23 0 30 4 30 20 0 11 7 20 15 20 8 0 15 -3 15 -6z m-147 -404
c3 -10 1 -20 -4 -22 -4 -2 -9 -18 -11 -35 -4 -54 -15 -37 -16 22 0 39 3 55 13
55 7 0 15 -9 18 -20z m784 -162 c-3 -8 -6 -5 -6 6 -1 11 2 17 5 13 3 -3 4 -12
1 -19z m3 -63 c0 -14 -4 -25 -10 -25 -5 0 -10 11 -10 25 0 14 5 25 10 25 6 0
10 -11 10 -25z m1181 -32 c13 -16 12 -17 -3 -4 -10 7 -18 15 -18 17 0 8 8 3
21 -13z m134 -123 c10 -11 16 -20 13 -20 -3 0 -13 9 -23 20 -10 11 -16 20 -13
20 3 0 13 -9 23 -20z m-1745 -20 c0 -5 -9 -10 -20 -10 -11 0 -20 5 -20 10 0 6
9 10 20 10 11 0 20 -4 20 -10z m340 -130 c14 0 21 -32 9 -46 -18 -22 -41 -18
-34 6 4 11 2 20 -4 20 -6 0 -11 7 -11 16 0 11 5 14 16 10 9 -3 19 -6 24 -6z
m-714 -96 c-3 -8 -1 -14 4 -14 5 0 11 8 13 18 3 10 5 7 6 -10 1 -21 -3 -26
-15 -21 -13 5 -15 2 -9 -15 4 -13 2 -22 -4 -22 -6 0 -11 20 -11 46 0 29 4 43
11 39 6 -4 8 -13 5 -21z m39 -64 c-3 -5 -12 -10 -18 -10 -7 0 -6 4 3 10 19 12
23 12 15 0z m892 -392 c-3 -8 -6 -5 -6 6 -1 11 2 17 5 13 3 -3 4 -12 1 -19z
m-707 -68 c18 -12 2 -12 -25 0 -13 6 -15 9 -5 9 8 0 22 -4 30 -9z m317 -6 c-3
-3 -12 -4 -19 -1 -8 3 -5 6 6 6 11 1 17 -2 13 -5z m5607 -864 c44 -22 76 -49
76 -63 0 -6 16 -25 35 -43 40 -37 45 -66 13 -89 -21 -14 -24 -14 -32 5 -5 11
-12 20 -15 20 -11 0 -114 100 -105 101 19 2 -43 17 -74 18 -43 1 -38 19 14 48
47 27 41 27 88 3z m336 -545 c0 -13 -77 -88 -119 -115 -42 -28 -50 -30 -143
-30 -59 0 -98 4 -98 10 0 6 17 10 38 10 43 0 146 46 202 90 19 15 42 30 50 33
20 7 70 9 70 2z m-6117 -752 c-13 -2 -35 -2 -50 0 -16 2 -5 4 22 4 28 0 40 -2
28 -4z m530 0 c-7 -2 -19 -2 -25 0 -7 3 -2 5 12 5 14 0 19 -2 13 -5z m-783
-83 c0 -5 -4 -10 -10 -10 -5 0 -10 5 -10 10 0 6 5 10 10 10 6 0 10 -4 10 -10z
m2781 -7 c13 -16 12 -17 -3 -4 -10 7 -18 15 -18 17 0 8 8 3 21 -13z m-1781
-24 c-13 -8 -13 -10 0 -19 13 -8 12 -10 -2 -10 -10 0 -18 6 -18 13 0 16 21 39
29 31 3 -3 -1 -9 -9 -15z m-65 -29 c3 -5 1 -10 -4 -10 -6 0 -11 5 -11 10 0 6
2 10 4 10 3 0 8 -4 11 -10z m375 -34 c91 -21 175 -52 228 -81 24 -14 49 -22
56 -18 6 3 8 3 4 -2 -7 -8 34 -35 59 -39 7 -1 16 -6 20 -11 4 -4 1 -5 -7 -1
-8 4 -7 1 4 -6 114 -78 205 -167 268 -260 13 -21 28 -36 31 -33 4 3 5 2 2 -1
-2 -4 2 -19 10 -33 7 -15 34 -78 60 -141 58 -144 79 -263 73 -415 -3 -62 -1
-99 3 -85 5 15 6 6 2 -25 -7 -58 -13 -71 -14 -29 -1 20 -4 14 -10 -21 -6 -27
-17 -71 -25 -97 -9 -26 -12 -53 -8 -59 4 -7 3 -9 -4 -5 -6 3 -13 -6 -17 -23
-6 -28 -69 -133 -135 -225 -19 -27 -33 -54 -32 -60 2 -6 0 -8 -4 -3 -10 9 -55
-33 -48 -45 3 -5 2 -7 -3 -6 -4 2 -19 -5 -33 -16 l-25 -18 30 5 30 6 -27 -12
c-16 -6 -28 -18 -28 -26 0 -14 -2 -14 -9 -1 -6 8 -7 18 -4 24 3 5 1 6 -5 2 -6
-4 -8 -14 -5 -23 4 -11 2 -14 -5 -9 -16 10 -54 -12 -46 -26 4 -7 2 -8 -5 -4
-16 10 -64 -22 -55 -36 4 -6 3 -8 -4 -5 -14 9 -43 -3 -36 -15 3 -5 0 -9 -7 -7
-8 1 -21 1 -29 0 -13 -1 -13 -2 0 -12 12 -8 12 -10 -5 -8 -43 3 -50 -2 -25
-16 28 -16 19 -20 -10 -5 -25 13 -78 2 -58 -12 10 -8 10 -9 -3 -5 -8 3 -51 -4
-95 -14 -126 -30 -261 -51 -304 -47 -23 2 -40 -1 -41 -7 0 -5 -3 -5 -5 2 -4 8
-11 7 -24 -4 -10 -9 -17 -20 -14 -25 3 -5 2 -7 -3 -6 -13 4 -53 -22 -53 -34 0
-7 5 -6 15 2 8 7 15 9 15 5 0 -4 8 -1 18 6 15 13 16 12 3 -3 -12 -16 -11 -18
3 -18 9 0 16 -5 16 -10 0 -22 -33 -60 -51 -60 -11 0 -19 -4 -19 -10 0 -5 -4
-10 -9 -10 -4 0 -7 12 -5 28 2 15 1 21 -2 15 -3 -7 -15 -13 -27 -13 -22 1 -22
1 -3 15 20 15 20 15 0 16 -11 1 -7 4 11 8 17 4 36 3 43 -2 6 -5 12 -6 12 -2 0
16 -35 33 -51 25 -28 -16 -161 -40 -188 -35 -19 4 -21 3 -8 -3 17 -7 17 -9 -5
-20 -13 -7 -32 -13 -43 -15 -11 -1 -24 -5 -30 -9 -13 -7 -47 5 -46 17 0 6 -7
9 -15 7 -8 -2 -14 1 -13 5 1 4 1 17 0 28 -1 15 -3 17 -10 7 -7 -11 -9 -11 -14
2 -3 8 -2 18 4 22 6 4 6 11 -1 19 -7 8 -9 18 -6 23 3 5 -4 18 -16 28 -20 19
-21 19 -14 -1 5 -18 2 -21 -22 -20 -27 0 -35 14 -21 40 3 6 5 26 4 45 -4 101
-5 105 -15 90 -5 -8 -7 -23 -4 -32 3 -10 1 -18 -5 -18 -6 0 -11 -12 -11 -27
-1 -26 -1 -27 -15 -9 -9 12 -11 24 -6 35 6 11 4 23 -5 36 -13 17 -19 14 -15
-9 1 -4 -3 -14 -9 -21 -17 -20 -69 12 -62 37 3 14 -2 21 -17 25 -11 3 -21 11
-21 17 0 7 -12 12 -27 11 -29 0 -38 13 -23 35 9 13 12 13 24 -3 13 -17 52 -25
42 -8 -11 17 6 42 24 36 11 -4 20 3 28 20 6 14 17 25 24 25 9 0 8 -3 -2 -10
-11 -7 -7 -10 17 -10 22 0 36 6 43 19 5 11 19 19 30 18 22 -1 35 -23 19 -33
-5 -3 -7 -15 -3 -26 5 -16 3 -20 -9 -15 -12 4 -14 2 -10 -10 4 -11 2 -14 -5
-9 -7 4 -12 2 -12 -4 0 -7 6 -10 14 -7 8 3 17 1 19 -6 6 -16 36 88 39 134 1
21 -5 45 -16 60 -11 14 -16 17 -13 7 4 -12 -1 -21 -16 -29 -18 -9 -20 -9 -10
2 16 16 -2 40 -23 32 -9 -3 -14 2 -14 14 0 10 -5 24 -12 31 -24 24 8 11 35
-13 37 -35 34 -20 -6 24 -30 33 -56 48 -49 28 1 -5 -2 -6 -7 -2 -6 3 -7 13 -4
22 4 11 3 14 -5 9 -7 -4 -12 -3 -12 2 0 15 -55 34 -86 30 -23 -2 -33 3 -46 25
-10 15 -23 26 -30 25 -7 -2 -14 8 -16 21 -2 13 0 21 5 18 5 -3 1 33 -9 81 -26
131 -26 132 -43 126 -11 -5 -13 -2 -9 10 3 9 10 13 15 10 11 -6 10 21 -1 56
-6 20 -8 21 -9 6 -1 -19 -2 -19 -22 2 -11 12 -17 27 -14 32 3 6 -4 10 -15 10
-16 0 -20 5 -16 15 3 8 1 15 -4 15 -14 0 -12 32 4 70 13 33 31 27 20 -7 -6
-14 -4 -16 6 -6 7 6 14 24 16 40 1 15 5 43 9 61 3 19 2 32 -4 32 -6 0 -8 -7
-5 -15 4 -8 2 -15 -4 -15 -5 0 -7 -11 -4 -25 2 -14 0 -25 -6 -25 -5 0 -10 6
-9 13 1 31 -4 48 -12 43 -5 -3 -7 -16 -4 -29 4 -21 4 -20 -10 3 -13 23 -13 27
4 42 12 10 17 23 12 34 -5 13 -3 16 10 11 9 -3 17 -2 17 3 0 21 20 9 21 -12 1
-17 3 -14 11 11 6 24 6 37 -2 45 -8 8 -9 6 -5 -6 7 -19 -2 -23 -21 -10 -12 7
-11 52 2 73 4 8 3 9 -4 5 -20 -12 -14 32 6 52 29 29 41 72 19 64 -5 -1 -6 2
-2 8 10 16 35 12 35 -6 0 -14 3 -14 15 -4 12 10 15 9 15 -4 0 -12 -7 -16 -22
-14 -16 2 -24 -3 -26 -17 -4 -17 -2 -18 12 -6 14 12 15 10 12 -18 -2 -17 1
-31 5 -31 5 0 9 6 9 13 0 6 7 25 15 41 8 15 12 33 8 39 -3 5 -2 7 4 4 6 -4 23
17 38 46 15 29 50 82 77 120 32 45 43 67 33 67 -8 0 -15 4 -15 10 0 5 6 8 13
6 6 -1 9 -1 5 1 -4 3 -10 3 -13 1 -3 -2 -17 17 -31 41 -20 32 -23 45 -14 51 8
5 6 9 -6 14 -16 6 -16 8 -4 17 13 8 13 10 0 18 -24 16 -7 21 49 14 29 -3 47
-9 41 -13 -8 -5 -5 -9 7 -12 15 -4 19 -13 17 -37 -1 -17 2 -31 8 -31 5 0 6 -5
3 -10 -5 -8 -12 -7 -23 2 -12 9 -11 6 2 -10 15 -18 16 -22 4 -22 -8 0 -15 -7
-15 -15 0 -8 1 -15 2 -15 0 0 17 16 36 37 18 20 29 33 22 29 -7 -4 -17 2 -23
14 -11 21 3 30 15 10 5 -8 11 -7 21 1 7 6 11 16 7 23 -4 6 0 5 9 -2 12 -10 17
-10 20 -1 2 7 11 13 20 15 26 3 98 56 91 67 -3 6 -1 7 5 3 6 -4 33 3 59 15 26
11 62 27 78 34 17 8 58 19 92 26 35 6 61 15 58 19 -2 4 6 5 18 3 12 -2 36 1
52 7 17 7 52 14 79 16 28 3 51 6 52 7 7 7 176 -13 234 -27z m-785 -116 c4 -6
1 -9 -7 -8 -7 2 -12 -2 -11 -8 1 -7 -6 -10 -18 -7 -13 4 -19 1 -17 -8 2 -10
-6 -14 -25 -13 -26 1 -28 -1 -22 -25 l6 -26 -17 25 c-26 35 -25 58 2 63 13 2
21 0 18 -4 -3 -5 4 -9 15 -9 11 0 23 5 26 10 4 6 10 8 15 5 5 -3 11 -1 15 5 8
13 12 13 20 0z m-642 -150 c3 -11 1 -18 -4 -14 -5 3 -9 12 -9 20 0 20 7 17 13
-6z m431 -37 c7 -18 -10 -34 -30 -26 -10 4 -11 9 -1 24 15 23 23 24 31 2z
m5496 -97 c0 -3 -4 -8 -10 -11 -5 -3 -10 -1 -10 4 0 6 5 11 10 11 6 0 10 -2
10 -4z m27 -78 c-2 -13 -4 -5 -4 17 -1 22 1 32 4 23 2 -10 2 -28 0 -40z
m-5955 -18 c3 -16 2 -34 -2 -40 -4 -6 -7 7 -8 30 -2 47 4 53 10 10z m5955 -52
c-3 -7 -5 -2 -5 12 0 14 2 19 5 13 2 -7 2 -19 0 -25z m-3775 -73 c9 -20 9 -20
-6 -1 -9 11 -16 27 -15 35 0 14 1 14 6 1 3 -8 10 -24 15 -35z m3745 -21 c-3
-3 -12 -4 -19 -1 -8 3 -5 6 6 6 11 1 17 -2 13 -5z m-360 -30 c-3 -3 -12 -4
-19 -1 -8 3 -5 6 6 6 11 1 17 -2 13 -5z m-984 -51 c-13 -2 -33 -2 -45 0 -13 2
-3 4 22 4 25 0 35 -2 23 -4z m624 1 c-3 -3 -12 -4 -19 -1 -8 3 -5 6 6 6 11 1
17 -2 13 -5z m-384 -11 c-7 -2 -19 -2 -25 0 -7 3 -2 5 12 5 14 0 19 -2 13 -5z
m-4672 -180 c-8 -15 -10 -15 -11 -2 0 17 10 32 18 25 2 -3 -1 -13 -7 -23z
m2144 -88 c2 -26 -1 -43 -6 -40 -5 4 -9 27 -9 52 0 58 11 50 15 -12z m25 29
c0 -8 -4 -12 -10 -9 -5 3 -10 10 -10 16 0 5 5 9 10 9 6 0 10 -7 10 -16z m39
-27 c-1 -31 -1 -31 -9 -7 -11 36 -11 52 0 45 6 -3 10 -21 9 -38z m-96 -18 c-8
-29 -13 -23 -13 14 0 22 3 28 9 18 5 -7 6 -22 4 -32z m4 -111 c-3 -8 -6 -5 -6
6 -1 11 2 17 5 13 3 -3 4 -12 1 -19z m3663 -9 c0 -18 -2 -19 -15 -5 -8 8 -15
17 -15 20 0 3 7 6 15 6 9 0 15 -9 15 -21z m-120 7 c0 -3 -4 -8 -10 -11 -5 -3
-10 -1 -10 4 0 6 5 11 10 11 6 0 10 -2 10 -4z m-5753 -23 c-13 -12 27 -32 45
-22 11 6 19 5 23 -2 10 -16 -4 -59 -19 -59 -18 0 -26 -22 -27 -73 0 -33 -2
-38 -9 -22 -8 19 -9 19 -9 -2 -1 -12 3 -23 8 -25 5 -1 12 -18 16 -37 5 -22 4
-31 -3 -27 -6 3 -13 0 -15 -6 -10 -25 -28 16 -25 57 3 53 -10 105 -27 105 -22
0 -26 16 -10 46 8 16 15 33 15 37 0 11 23 36 34 37 5 0 6 -3 3 -7z m170 -35
c-3 -8 -6 -5 -6 6 -1 11 2 17 5 13 3 -3 4 -12 1 -19z m2392 9 c-2 -1 -13 -9
-24 -17 -19 -14 -19 -14 -6 3 7 9 18 17 24 17 6 0 8 -1 6 -3z m-2459 -47 c0
-5 -5 -10 -11 -10 -5 0 -7 5 -4 10 3 6 8 10 11 10 2 0 4 -4 4 -10z m103 -27
c2 -10 -3 -26 -11 -35 -14 -16 -13 -18 2 -18 10 0 14 -5 10 -11 -3 -6 0 -15 7
-20 10 -6 11 -11 3 -16 -6 -5 -16 -17 -22 -28 -9 -17 -10 -13 -6 20 4 37 3 38
-7 13 -12 -31 -25 -34 -52 -14 -31 24 -8 79 38 88 12 2 19 10 17 21 -4 22 15
22 21 0z m-266 -130 c-3 -10 -5 -4 -5 12 0 17 2 24 5 18 2 -7 2 -21 0 -30z
m5932 -138 c-2 -80 -6 -150 -10 -157 -16 -25 -27 6 -24 67 2 37 -1 63 -6 59
-5 -3 -9 0 -9 7 0 7 -11 10 -31 7 -27 -4 -30 -2 -25 16 6 25 -8 54 -18 37 -5
-8 -11 -7 -21 2 -20 19 10 47 52 47 24 0 41 8 61 30 15 16 28 30 30 30 2 0 2
-65 1 -145z m-5778 92 c-8 -8 -11 -5 -11 9 0 27 14 41 18 19 2 -9 -1 -22 -7
-28z m3909 -27 c0 -5 8 -10 18 -11 9 0 12 -3 6 -5 -7 -3 -7 -19 0 -55 9 -45 8
-53 -7 -64 -10 -7 -26 -11 -37 -8 -22 6 -35 34 -20 43 6 4 8 14 5 23 -4 9 2
24 14 36 11 11 16 23 11 26 -13 8 -13 25 0 25 6 0 10 -4 10 -10z m-3920 -10
c0 -5 -4 -10 -10 -10 -5 0 -10 5 -10 10 0 6 5 10 10 10 6 0 10 -4 10 -10z
m4740 -39 c0 -3 -9 -12 -20 -18 -21 -14 -36 -2 -26 22 5 13 46 10 46 -4z
m-2749 -44 c-10 -9 -11 -8 -5 6 3 10 9 15 12 12 3 -3 0 -11 -7 -18z m3602 -4
c-7 -2 -19 -2 -25 0 -7 3 -2 5 12 5 14 0 19 -2 13 -5z m-5703 -7 c0 -2 -6 -9
-14 -15 -11 -9 -16 -9 -22 0 -4 8 -3 9 4 5 7 -4 12 -2 12 3 0 6 5 11 10 11 6
0 10 -2 10 -4z m5736 -56 c8 0 14 9 14 20 0 11 4 20 9 20 4 0 9 -25 9 -55 0
-50 -2 -55 -21 -55 -16 0 -19 3 -8 9 7 5 12 14 9 21 -2 8 -13 3 -28 -14 -21
-22 -31 -24 -65 -19 -22 3 -46 10 -52 16 -22 16 -15 37 13 37 20 0 24 4 19 19
-5 16 -2 18 15 14 14 -4 28 2 43 18 l22 24 3 -28 c2 -15 9 -27 18 -27z m-3080
25 c9 -8 14 -22 12 -30 -2 -12 -9 -10 -31 9 -25 22 -25 29 1 35 2 1 10 -6 18
-14z m-616 -40 c0 -5 -5 -3 -10 5 -5 8 -10 20 -10 25 0 6 5 3 10 -5 5 -8 10
-19 10 -25z m33 9 c-3 -8 -1 -14 5 -14 6 0 13 6 15 13 4 9 6 9 6 0 1 -18 -17
-25 -36 -14 -10 6 -14 11 -9 11 5 0 3 6 -3 14 -10 12 -9 13 8 9 12 -3 17 -11
14 -19z m-1503 -26 c0 -30 -1 -31 -17 -16 -13 14 -14 20 -3 32 18 22 20 20 20
-16z m5280 16 c0 -24 -28 -47 -48 -39 -12 5 -13 9 -4 12 6 3 12 13 12 24 0 12
7 19 20 19 12 0 20 -7 20 -16z m-3128 -19 c-5 -28 -20 -33 -29 -9 -3 9 0 20 8
25 22 14 27 11 21 -16z m48 -12 c0 -3 -7 -11 -15 -19 -13 -14 -15 -13 -15 4 0
10 7 19 15 19 8 0 15 -2 15 -4z m1890 -3 c12 -8 13 -13 3 -30 -7 -11 -13 -29
-13 -40 0 -24 -10 -25 -36 -4 -13 11 -15 17 -6 20 6 3 12 16 12 28 0 35 13 43
40 26z m-4587 -38 c-18 -5 -27 3 -18 17 4 7 10 7 20 -2 11 -10 11 -13 -2 -15z
m2517 -22 c0 -5 -4 -10 -10 -10 -5 0 -10 5 -10 10 0 6 5 10 10 10 6 0 10 -4
10 -10z m410 0 c0 -5 -4 -10 -10 -10 -5 0 -10 5 -10 10 0 6 5 10 10 10 6 0 10
-4 10 -10z m-282 -17 c2 -8 -5 -13 -17 -13 -12 0 -21 6 -21 16 0 18 31 15 38
-3z m-793 -23 c-3 -5 -12 -10 -18 -10 -7 0 -6 4 3 10 19 12 23 12 15 0z m1282
-11 c22 -22 -14 -73 -43 -62 -19 7 -18 32 3 55 19 21 25 22 40 7z m2690 -61
c-3 -7 -5 -2 -5 12 0 14 2 19 5 13 2 -7 2 -19 0 -25z m-4127 4 c0 -5 -7 -17
-16 -28 -8 -10 -14 -14 -11 -9 2 6 7 18 10 28 7 17 17 23 17 9z m4107 -29 c-3
-10 -5 -4 -5 12 0 17 2 24 5 18 2 -7 2 -21 0 -30z m-5837 6 c0 -6 -4 -7 -10
-4 -5 3 -10 11 -10 16 0 6 5 7 10 4 6 -3 10 -11 10 -16z m2740 -3 c0 -7 -7
-19 -15 -26 -12 -10 -15 -9 -15 7 0 11 3 23 7 26 11 12 23 8 23 -7z m70 10 c0
-3 -4 -8 -10 -11 -5 -3 -10 -1 -10 4 0 6 5 11 10 11 6 0 10 -2 10 -4z m2140
-7 c0 6 5 11 10 11 6 0 10 -7 10 -15 0 -10 -10 -15 -30 -15 -29 0 -38 9 -23
23 3 4 12 2 20 -4 9 -9 13 -8 13 0z m-4970 -39 c8 -5 12 -11 10 -14 -3 -2 -14
2 -24 10 -22 15 -10 19 14 4z m506 -36 c-7 -37 -16 -43 -12 -8 4 34 4 34 11
34 3 0 3 -12 1 -26z m2198 -20 c3 -8 2 -12 -4 -9 -6 3 -10 10 -10 16 0 14 7
11 14 -7z m-2616 -17 c2 -9 -4 -24 -12 -33 -15 -14 -16 -12 -16 21 0 37 22 46
28 12z m3442 3 c0 -5 -4 -10 -10 -10 -5 0 -10 5 -10 10 0 6 5 10 10 10 6 0 10
-4 10 -10z m0 -35 c0 -8 -4 -15 -9 -15 -13 0 -22 16 -14 24 11 11 23 6 23 -9z
m2349 -39 c0 -28 -3 -44 -6 -36 -3 8 -12 22 -19 30 -16 19 -8 57 12 57 10 0
14 -13 13 -51z m-3469 -66 c0 -5 -5 -10 -11 -10 -5 0 -7 5 -4 10 3 6 8 10 11
10 2 0 4 -4 4 -10z m1655 -10 c-3 -5 0 -20 7 -32 12 -23 13 -22 18 11 5 33 6
34 23 17 9 -10 17 -13 17 -7 0 6 7 11 15 11 11 0 15 -11 15 -40 0 -29 -4 -40
-15 -40 -8 0 -15 6 -16 13 0 10 -2 10 -6 0 -2 -7 -13 -13 -22 -13 -14 0 -17
-6 -13 -25 2 -14 2 -25 -1 -25 -3 0 -18 11 -33 25 -15 14 -35 25 -45 25 -16 0
-19 8 -19 43 l0 44 41 1 c24 1 38 -2 34 -8z m1225 -31 c0 -17 -4 -28 -10 -24
-11 7 -9 55 2 55 4 0 8 -14 8 -31z m-2894 -16 c-11 -11 -19 6 -11 24 8 17 8
17 12 0 3 -10 2 -21 -1 -24z m-2393 7 c3 -11 1 -20 -4 -20 -5 0 -9 9 -9 20 0
11 2 20 4 20 2 0 6 -9 9 -20z m1047 -10 c0 -5 -4 -10 -10 -10 -5 0 -10 5 -10
10 0 6 5 10 10 10 6 0 10 -4 10 -10z m2191 -12 c11 -11 19 -26 18 -32 0 -6 -3
-6 -6 2 -2 6 -20 12 -39 12 -37 0 -37 0 -28 24 9 22 33 20 55 -6z m-2311 -18
c0 -5 -5 -10 -11 -10 -5 0 -7 5 -4 10 3 6 8 10 11 10 2 0 4 -4 4 -10z m2645
-17 c-4 -10 -10 -30 -13 -45 -2 -16 -11 -28 -18 -28 -12 0 -12 4 -4 20 6 11 8
31 4 45 -5 21 -3 25 16 25 17 0 20 -4 15 -17z m-3566 -33 c4 0 12 5 17 10 8 8
11 -2 10 -30 -1 -45 -2 -47 -28 -23 -11 9 -18 29 -17 47 1 17 3 23 6 14 2 -10
8 -18 12 -18z m61 -1 c0 -5 -4 -9 -10 -9 -5 0 -10 7 -10 16 0 8 5 12 10 9 6
-3 10 -10 10 -16z m150 -40 c0 -46 -2 -49 -25 -49 -16 0 -25 -6 -25 -15 0 -8
-9 -15 -20 -15 -15 0 -20 7 -20 26 0 17 6 28 20 31 12 3 20 14 20 26 0 24 29
59 41 51 5 -3 9 -27 9 -55z m725 41 c3 -5 1 -10 -4 -10 -6 0 -11 5 -11 10 0 6
2 10 4 10 3 0 8 -4 11 -10z m1676 -37 c5 -13 9 -26 9 -28 0 -5 -34 -17 -62
-21 -25 -3 -28 -1 -28 26 0 17 -4 30 -10 30 -23 0 -8 19 18 22 43 5 63 -3 73
-29z m1395 5 c4 -6 3 -8 -3 -5 -6 4 -13 0 -17 -8 -6 -17 -66 -21 -66 -4 0 6 6
9 13 6 7 -3 21 1 32 9 23 17 32 18 41 2z m1137 5 c-7 -2 -19 -2 -25 0 -7 3 -2
5 12 5 14 0 19 -2 13 -5z m-3033 -19 c0 -10 6 -14 15 -11 8 4 17 2 20 -3 4 -6
17 -10 31 -10 17 0 24 -5 24 -20 0 -28 -46 -28 -53 0 -3 14 -14 20 -31 20 -19
0 -26 5 -26 20 0 11 5 20 10 20 6 0 10 -7 10 -16z m387 -16 c-3 -7 -5 -2 -5
12 0 14 2 19 5 13 2 -7 2 -19 0 -25z m2963 22 c0 -5 -4 -10 -10 -10 -5 0 -10
5 -10 10 0 6 5 10 10 10 6 0 10 -4 10 -10z m-2212 -18 c4 -14 -34 -16 -42 -3
-6 10 13 21 28 17 6 -1 12 -8 14 -14z m1917 7 c12 -19 -5 -23 -22 -6 -16 16
-16 17 -1 17 9 0 20 -5 23 -11z m-2445 -14 c0 -8 -4 -15 -10 -15 -5 0 -10 7
-10 15 0 8 5 15 10 15 6 0 10 -7 10 -15z m144 9 c23 -9 19 -31 -6 -38 -30 -7
-45 8 -28 29 14 17 13 17 34 9z m657 -37 c-18 -18 -38 8 -21 28 12 15 14 15
23 0 6 -11 5 -21 -2 -28z m657 16 c-2 -22 -9 -29 -30 -31 -25 -3 -28 0 -28 27
0 28 3 31 31 31 27 0 30 -3 27 -27z m942 12 c0 -8 -7 -15 -15 -15 -16 0 -20
12 -8 23 11 12 23 8 23 -8z m560 -5 c0 -5 -5 -10 -11 -10 -5 0 -7 5 -4 10 3 6
8 10 11 10 2 0 4 -4 4 -10z m-4724 -12 c-3 -7 -9 -21 -12 -30 -7 -19 -39 -24
-49 -8 -3 6 4 10 16 10 18 0 20 3 11 12 -19 19 -14 28 14 28 17 0 24 -4 20
-12z m1710 -9 c3 -6 -1 -18 -10 -27 -15 -15 -16 -14 -16 11 0 27 13 36 26 16z
m3134 1 c0 -5 -9 -10 -20 -10 -11 0 -20 5 -20 10 0 6 9 10 20 10 11 0 20 -4
20 -10z m-4820 -10 c0 -5 -5 -10 -11 -10 -5 0 -7 5 -4 10 3 6 8 10 11 10 2 0
4 -4 4 -10z m1495 0 c-3 -5 -14 -10 -23 -10 -15 0 -15 2 -2 10 20 13 33 13 25
0z m1465 0 c0 -5 -4 -10 -10 -10 -5 0 -10 5 -10 10 0 6 5 10 10 10 6 0 10 -4
10 -10z m360 -20 c0 -10 6 -20 13 -23 19 -7 -5 -40 -34 -48 -21 -5 -22 -7 -6
-14 9 -4 26 -5 36 -2 14 3 17 0 14 -14 -3 -12 0 -19 8 -19 11 0 11 -2 -1 -10
-8 -5 -19 -10 -25 -10 -5 0 -3 5 5 10 12 8 10 10 -10 10 -20 0 -22 2 -10 10
11 7 7 10 -17 10 -23 0 -33 5 -33 15 0 9 -9 15 -25 15 -15 0 -25 6 -25 14 0
14 40 47 70 59 10 3 6 6 -10 7 l-25 2 25 7 c33 10 50 3 50 -19z m-3857 -3 c34
21 54 -2 41 -51 -7 -30 -19 -33 -41 -11 -12 12 -13 19 -3 30 10 13 8 15 -13
15 -14 0 -27 7 -31 15 -4 13 -2 14 14 5 11 -6 26 -7 33 -3z m1867 9 c0 -2 -7
-6 -15 -10 -8 -3 -15 -1 -15 4 0 6 7 10 15 10 8 0 15 -2 15 -4z m177 -18 c-3
-8 -6 -5 -6 6 -1 11 2 17 5 13 3 -3 4 -12 1 -19z m783 12 c12 -7 8 -10 -15
-10 -16 0 -37 5 -45 10 -12 7 -8 10 15 10 17 0 37 -5 45 -10z m-1390 -42 c0
-11 8 -22 20 -25 30 -8 25 -33 -7 -34 l-28 -1 30 -8 c30 -8 30 -8 -7 -9 -21 0
-38 3 -38 8 0 5 -8 12 -17 14 -10 3 2 5 26 6 24 0 41 4 37 8 -3 4 -28 6 -54 6
-26 0 -34 1 -19 4 21 3 29 11 34 34 6 31 23 30 23 -3z m1400 -22 c0 -2 -7 -7
-16 -10 -8 -3 -12 -2 -9 4 6 10 25 14 25 6z m-2815 -36 c-4 -6 7 -10 27 -10
l33 -1 -40 -14 c-22 -8 -47 -14 -55 -14 -8 1 -4 5 10 9 14 4 18 8 9 9 -22 1
-20 31 3 31 11 0 16 -4 13 -10z m505 4 c22 -5 28 -9 18 -15 -9 -6 -4 -9 16 -9
38 0 31 -6 -17 -14 -27 -5 -37 -4 -32 3 4 7 -5 11 -22 12 l-28 1 30 8 30 7
-35 5 c-19 3 -25 6 -14 6 12 1 36 -1 54 -4z m437 0 c-3 -3 -12 -4 -19 -1 -8 3
-5 6 6 6 11 1 17 -2 13 -5z m846 -1 c-7 -2 -19 -2 -25 0 -7 3 -2 5 12 5 14 0
19 -2 13 -5z m1580 0 c-7 -2 -21 -2 -30 0 -10 3 -4 5 12 5 17 0 24 -2 18 -5z
m-2040 -20 c-7 -2 -19 -2 -25 0 -7 3 -2 5 12 5 14 0 19 -2 13 -5z m424 1 c-3
-3 -12 -4 -19 -1 -8 3 -5 6 6 6 11 1 17 -2 13 -5z m683 -4 c0 -13 -11 -13 -30
0 -12 8 -11 10 8 10 12 0 22 -4 22 -10z m-1967 -17 c-7 -2 -19 -2 -25 0 -7 3
-2 5 12 5 14 0 19 -2 13 -5z m945 0 c-15 -2 -42 -2 -60 0 -18 2 -6 4 27 4 33
0 48 -2 33 -4z m629 1 c-3 -3 -12 -4 -19 -1 -8 3 -5 6 6 6 11 1 17 -2 13 -5z
m541 -1 c-10 -2 -26 -2 -35 0 -10 3 -2 5 17 5 19 0 27 -2 18 -5z m229 1 c-3
-3 -12 -4 -19 -1 -8 3 -5 6 6 6 11 1 17 -2 13 -5z m1176 -1 c-7 -2 -21 -2 -30
0 -10 3 -4 5 12 5 17 0 24 -2 18 -5z m340 0 c-7 -2 -19 -2 -25 0 -7 3 -2 5 12
5 14 0 19 -2 13 -5z m300 0 c-7 -2 -21 -2 -30 0 -10 3 -4 5 12 5 17 0 24 -2
18 -5z m65 0 c-10 -2 -26 -2 -35 0 -10 3 -2 5 17 5 19 0 27 -2 18 -5z"/>
<path d="M6170 3910 c0 -5 5 -10 11 -10 5 0 7 5 4 10 -3 6 -8 10 -11 10 -2 0
-4 -4 -4 -10z"/>
<path d="M229 1565 c-3 -5 0 -28 7 -50 7 -22 12 -31 12 -20 -1 35 -13 80 -19
70z"/>
<path d="M185 1551 c-3 -5 -1 -12 5 -16 5 -3 10 1 10 9 0 18 -6 21 -15 7z"/>
<path d="M600 548 c0 -16 -5 -28 -11 -28 -8 0 -7 -5 2 -16 12 -15 14 -13 21
12 4 15 3 34 -2 43 -7 13 -9 10 -10 -11z"/>
<path d="M668 458 c9 -9 9 -15 -1 -27 -9 -11 -9 -13 0 -8 7 4 16 0 22 -10 5
-10 12 -15 16 -12 3 4 -2 15 -12 25 -17 17 -17 17 7 11 l25 -6 -25 19 c-27 21
-51 27 -32 8z"/>
<path d="M1087 428 c7 -8 11 -17 8 -20 -3 -2 2 -5 10 -5 21 0 19 10 -7 26 -20
13 -22 12 -11 -1z"/>
<path d="M768 403 c6 -2 18 -2 25 0 6 3 1 5 -13 5 -14 0 -19 -2 -12 -5z"/>
<path d="M550 2376 c0 -2 7 -7 16 -10 8 -3 12 -2 9 4 -6 10 -25 14 -25 6z"/>
<path d="M430 2199 c0 -5 5 -7 10 -4 6 3 10 8 10 11 0 2 -4 4 -10 4 -5 0 -10
-5 -10 -11z"/>
<path d="M33 1294 c-6 -13 -7 -24 -3 -24 9 0 25 39 18 45 -2 2 -8 -7 -15 -21z"/>
<path d="M4340 109 c0 -5 5 -7 10 -4 6 3 10 8 10 11 0 2 -4 4 -10 4 -5 0 -10
-5 -10 -11z"/>
<path d="M5969 6796 c-68 -26 -104 -48 -146 -89 -41 -39 -63 -78 -25 -44 27
25 87 47 127 47 42 0 121 -38 156 -74 18 -20 34 -26 67 -26 23 0 42 5 42 10 0
6 4 10 9 10 5 0 22 5 38 12 15 6 32 10 36 10 4 -1 1 10 -7 25 -13 27 -39 49
-116 102 -42 29 -129 37 -181 17z"/>
<path d="M6115 6496 c-165 -27 -374 -75 -394 -90 -14 -11 -9 -83 9 -130 l9
-24 48 24 c26 14 73 32 103 40 30 9 102 31 160 49 58 18 136 41 174 50 38 9
78 20 90 25 68 26 106 44 106 50 0 8 -45 17 -120 24 -25 3 -108 -6 -185 -18z"/>
<path d="M5775 6260 c-3 -6 1 -7 9 -4 18 7 21 14 7 14 -6 0 -13 -4 -16 -10z"/>
<path d="M3727 4073 c-21 -5 -67 -82 -67 -111 0 -21 4 -22 92 -22 83 0 94 -2
117 -24 21 -20 38 -25 96 -28 63 -3 70 -1 73 17 2 11 8 25 12 30 4 6 10 24 13
40 3 17 8 37 12 46 5 13 -5 17 -57 22 -35 3 -90 13 -123 21 -56 15 -130 19
-168 9z"/>
<path d="M2710 4017 c-25 -12 -45 -22 -46 -22 -1 0 -4 -12 -7 -26 l-7 -26 200
1 c110 1 200 4 200 8 0 4 -13 22 -29 40 -25 28 -37 33 -97 39 -114 13 -165 10
-214 -14z"/>
<path d="M4935 4005 c-16 -8 -55 -14 -85 -15 -32 0 -68 -7 -88 -18 -76 -40
-161 -96 -166 -107 -3 -9 31 -14 130 -19 l135 -7 32 28 c17 15 50 47 73 70 23
24 58 50 78 58 20 8 36 17 36 20 0 11 -117 2 -145 -10z"/>
<path d="M2 2120 c0 -14 2 -19 5 -12 2 6 2 18 0 25 -3 6 -5 1 -5 -13z"/>
<path d="M56 2077 c3 -10 9 -15 12 -12 3 3 0 11 -7 18 -10 9 -11 8 -5 -6z"/>
<path d="M1 1834 c0 -11 3 -14 6 -6 3 7 2 16 -1 19 -3 4 -6 -2 -5 -13z"/>
<path d="M2 830 c0 -14 2 -19 5 -12 2 6 2 18 0 25 -3 6 -5 1 -5 -13z"/>
<path d="M10 475 c-14 -17 -6 -50 10 -40 5 3 10 12 10 18 0 7 -4 6 -10 -3 -9
-13 -10 -13 -10 1 0 8 5 20 12 27 7 7 9 12 6 12 -3 0 -11 -7 -18 -15z"/>
</g>
</svg>
